<svg width="32" height="32" viewBox="0 0 32 32" fill="none" xmlns="http://www.w3.org/2000/svg">
<path d="M17.4545 1.45455C17.4545 1.06878 17.3013 0.698807 17.0285 0.426027C16.7557 0.153247 16.3858 0 16 0C15.6142 0 15.2443 0.153247 14.9715 0.426027C14.6987 0.698807 14.5455 1.06878 14.5455 1.45455V14.5455H1.45455C1.06878 14.5455 0.698807 14.6987 0.426027 14.9715C0.153247 15.2443 0 15.6142 0 16C0 16.3858 0.153247 16.7557 0.426027 17.0285C0.698807 17.3013 1.06878 17.4545 1.45455 17.4545H14.5455V30.5455C14.5455 30.9312 14.6987 31.3012 14.9715 31.574C15.2443 31.8468 15.6142 32 16 32C16.3858 32 16.7557 31.8468 17.0285 31.574C17.3013 31.3012 17.4545 30.9312 17.4545 30.5455V17.4545H30.5455C30.9312 17.4545 31.3012 17.3013 31.574 17.0285C31.8468 16.7557 32 16.3858 32 16C32 15.6142 31.8468 15.2443 31.574 14.9715C31.3012 14.6987 30.9312 14.5455 30.5455 14.5455H17.4545V1.45455Z" fill="#969696"/>
</svg>
