<svg width="48" height="48" viewBox="0 0 48 48" fill="none" xmlns="http://www.w3.org/2000/svg">
<path d="M25.5 8.25C25.5 7.65326 25.2629 7.08097 24.841 6.65901C24.419 6.23705 23.8467 6 23.25 6C22.6533 6 22.081 6.23705 21.659 6.65901C21.2371 7.08097 21 7.65326 21 8.25V21H8.25C7.65326 21 7.08097 21.2371 6.65901 21.659C6.23705 22.081 6 22.6533 6 23.25C6 23.8467 6.23705 24.419 6.65901 24.841C7.08097 25.2629 7.65326 25.5 8.25 25.5H21V38.25C21 38.8467 21.2371 39.419 21.659 39.841C22.081 40.2629 22.6533 40.5 23.25 40.5C23.8467 40.5 24.419 40.2629 24.841 39.841C25.2629 39.419 25.5 38.8467 25.5 38.25V25.5H38.25C38.8467 25.5 39.419 25.2629 39.841 24.841C40.2629 24.419 40.5 23.8467 40.5 23.25C40.5 22.6533 40.2629 22.081 39.841 21.659C39.419 21.2371 38.8467 21 38.25 21H25.5V8.25Z" fill="#969696"/>
</svg>
