<svg width="32" height="35" viewBox="0 0 32 35" fill="none" xmlns="http://www.w3.org/2000/svg">
<path d="M13.5385 4.92308H18.4615C18.4615 4.27024 18.2022 3.64413 17.7406 3.18251C17.2789 2.72088 16.6528 2.46154 16 2.46154C15.3472 2.46154 14.7211 2.72088 14.2594 3.18251C13.7978 3.64413 13.5385 4.27024 13.5385 4.92308ZM11.0769 4.92308C11.0769 3.6174 11.5956 2.36519 12.5189 1.44194C13.4421 0.51868 14.6943 0 16 0C17.3057 0 18.5579 0.51868 19.4811 1.44194C20.4044 2.36519 20.9231 3.6174 20.9231 4.92308H30.7692C31.0957 4.92308 31.4087 5.05275 31.6395 5.28356C31.8703 5.51438 32 5.82743 32 6.15385C32 6.48027 31.8703 6.79332 31.6395 7.02413C31.4087 7.25495 31.0957 7.38462 30.7692 7.38462H29.3809L26.4148 29.1397C26.2136 30.614 25.4851 31.9655 24.3641 32.9439C23.2431 33.9224 21.8055 34.4615 20.3175 34.4615H11.6825C10.1945 34.4615 8.75695 33.9224 7.63594 32.9439C6.51493 31.9655 5.7864 30.614 5.58523 29.1397L2.61908 7.38462H1.23077C0.904349 7.38462 0.591298 7.25495 0.360484 7.02413C0.12967 6.79332 0 6.48027 0 6.15385C0 5.82743 0.12967 5.51438 0.360484 5.28356C0.591298 5.05275 0.904349 4.92308 1.23077 4.92308H11.0769ZM13.5385 13.5385C13.5385 13.212 13.4088 12.899 13.178 12.6682C12.9472 12.4374 12.6341 12.3077 12.3077 12.3077C11.9813 12.3077 11.6682 12.4374 11.4374 12.6682C11.2066 12.899 11.0769 13.212 11.0769 13.5385V25.8462C11.0769 26.1726 11.2066 26.4856 11.4374 26.7164C11.6682 26.9473 11.9813 27.0769 12.3077 27.0769C12.6341 27.0769 12.9472 26.9473 13.178 26.7164C13.4088 26.4856 13.5385 26.1726 13.5385 25.8462V13.5385ZM19.6923 12.3077C20.0187 12.3077 20.3318 12.4374 20.5626 12.6682C20.7934 12.899 20.9231 13.212 20.9231 13.5385V25.8462C20.9231 26.1726 20.7934 26.4856 20.5626 26.7164C20.3318 26.9473 20.0187 27.0769 19.6923 27.0769C19.3659 27.0769 19.0528 26.9473 18.822 26.7164C18.5912 26.4856 18.4615 26.1726 18.4615 25.8462V13.5385C18.4615 13.212 18.5912 12.899 18.822 12.6682C19.0528 12.4374 19.3659 12.3077 19.6923 12.3077ZM8.02462 28.8074C8.14542 29.6918 8.58251 30.5025 9.255 31.0895C9.92749 31.6764 10.7898 31.9999 11.6825 32H20.3175C21.2106 32.0005 22.0735 31.6773 22.7465 31.0903C23.4195 30.5032 23.857 29.6922 23.9778 28.8074L26.8972 7.38462H5.10277L8.02462 28.8074Z" fill="#969696"/>
</svg>
