<svg width="48" height="48" viewBox="0 0 48 48" fill="none" xmlns="http://www.w3.org/2000/svg">
<path d="M21 9H27C27 8.20435 26.6839 7.44129 26.1213 6.87868C25.5587 6.31607 24.7956 6 24 6C23.2044 6 22.4413 6.31607 21.8787 6.87868C21.3161 7.44129 21 8.20435 21 9ZM18 9C18 7.4087 18.6321 5.88258 19.7574 4.75736C20.8826 3.63214 22.4087 3 24 3C25.5913 3 27.1174 3.63214 28.2426 4.75736C29.3679 5.88258 30 7.4087 30 9H42C42.3978 9 42.7794 9.15804 43.0607 9.43934C43.342 9.72064 43.5 10.1022 43.5 10.5C43.5 10.8978 43.342 11.2794 43.0607 11.5607C42.7794 11.842 42.3978 12 42 12H40.308L36.693 38.514C36.4478 40.3108 35.5599 41.9579 34.1937 43.1504C32.8275 44.3429 31.0754 45 29.262 45H18.738C16.9246 45 15.1725 44.3429 13.8063 43.1504C12.4401 41.9579 11.5522 40.3108 11.307 38.514L7.692 12H6C5.60218 12 5.22064 11.842 4.93934 11.5607C4.65804 11.2794 4.5 10.8978 4.5 10.5C4.5 10.1022 4.65804 9.72064 4.93934 9.43934C5.22064 9.15804 5.60218 9 6 9H18ZM21 19.5C21 19.1022 20.842 18.7206 20.5607 18.4393C20.2794 18.158 19.8978 18 19.5 18C19.1022 18 18.7206 18.158 18.4393 18.4393C18.158 18.7206 18 19.1022 18 19.5V34.5C18 34.8978 18.158 35.2794 18.4393 35.5607C18.7206 35.842 19.1022 36 19.5 36C19.8978 36 20.2794 35.842 20.5607 35.5607C20.842 35.2794 21 34.8978 21 34.5V19.5ZM28.5 18C28.1022 18 27.7206 18.158 27.4393 18.4393C27.158 18.7206 27 19.1022 27 19.5V34.5C27 34.8978 27.158 35.2794 27.4393 35.5607C27.7206 35.842 28.1022 36 28.5 36C28.8978 36 29.2794 35.842 29.5607 35.5607C29.842 35.2794 30 34.8978 30 34.5V19.5C30 19.1022 29.842 18.7206 29.5607 18.4393C29.2794 18.158 28.8978 18 28.5 18Z" fill="#969696"/>
</svg>
