<svg width="48" height="48" viewBox="0 0 48 48" fill="none" xmlns="http://www.w3.org/2000/svg">
<path d="M31.587 5.292C32.3172 4.56179 33.1841 3.98255 34.1382 3.58736C35.0922 3.19217 36.1148 2.98877 37.1475 2.98877C38.1802 2.98877 39.2027 3.19217 40.1568 3.58736C41.1109 3.98255 41.9778 4.56178 42.708 5.292C43.4382 6.02222 44.0175 6.88911 44.4126 7.84318C44.8078 8.79725 45.0112 9.81982 45.0112 10.8525C45.0112 11.8852 44.8078 12.9077 44.4126 13.8618C44.0175 14.8159 43.4382 15.6828 42.708 16.413L40.371 18.75L29.25 7.629L31.587 5.292ZM27.129 9.75L7.971 28.908C6.84998 30.0308 6.05025 31.4334 5.655 32.97L3.045 43.128C2.98027 43.3807 2.98259 43.646 3.05172 43.8976C3.12085 44.1491 3.2544 44.3783 3.43919 44.5625C3.62398 44.7467 3.85361 44.8795 4.10541 44.9478C4.35721 45.0161 4.62247 45.0176 4.875 44.952L15.03 42.345C16.5671 41.9511 17.9701 41.1512 19.092 40.029L38.25 20.871L27.129 9.75Z" fill="#969696"/>
</svg>
