<svg width="32" height="32" viewBox="0 0 32 32" fill="none" xmlns="http://www.w3.org/2000/svg">
<path d="M30.2446 1.75541C29.6886 1.19891 29.0284 0.757443 28.3017 0.456238C27.5751 0.155034 26.7961 0 26.0095 0C25.2229 0 24.4439 0.155034 23.7173 0.456238C22.9906 0.757443 22.3304 1.19891 21.7744 1.75541L3.78755 19.7423C2.93373 20.5974 2.32463 21.6657 2.02359 22.836L0.0357139 30.5728C-0.0135825 30.7653 -0.0118175 30.9673 0.0408347 31.1589C0.0934869 31.3505 0.195205 31.5251 0.335946 31.6654C0.476686 31.8056 0.651582 31.9068 0.843363 31.9588C1.03514 32.0108 1.23718 32.0119 1.42951 31.962L9.16395 29.9764C10.3347 29.6764 11.4033 29.0672 12.2577 28.2125L30.2446 10.2256C30.8011 9.66963 31.2426 9.00943 31.5438 8.28274C31.845 7.55606 32 6.77714 32 5.9905C32 5.20387 31.845 4.42495 31.5438 3.69826C31.2426 2.97158 30.8011 2.31138 30.2446 1.75541ZM23.3898 3.37085C24.0846 2.67607 25.0269 2.28575 26.0095 2.28575C26.9921 2.28575 27.9344 2.67607 28.6292 3.37085C29.3239 4.06562 29.7142 5.00794 29.7142 5.9905C29.7142 6.97306 29.3239 7.91538 28.6292 8.61016L26.8492 10.3901L21.6099 5.1508L23.3898 3.37085ZM19.9945 6.76623L25.2338 12.0055L10.6423 26.597C10.0768 27.1621 9.36962 27.5646 8.59501 27.7623L2.72963 29.2704L4.23767 23.405C4.43435 22.63 4.837 21.9225 5.40298 21.3577L19.9945 6.76623Z" fill="#969696"/>
</svg>
