<svg width="48" height="48" viewBox="0 0 48 48" fill="none" xmlns="http://www.w3.org/2000/svg">
<path d="M15 10.5C15 8.11305 15.9482 5.82387 17.636 4.13604C19.3239 2.44821 21.6131 1.5 24 1.5C26.3869 1.5 28.6761 2.44821 30.364 4.13604C32.0518 5.82387 33 8.11305 33 10.5V12H34.5C36.4891 12 38.3968 12.7902 39.8033 14.1967C41.2098 15.6032 42 17.5109 42 19.5V34.5C42 36.4891 41.2098 38.3968 39.8033 39.8033C38.3968 41.2098 36.4891 42 34.5 42H13.5C11.5109 42 9.60322 41.2098 8.1967 39.8033C6.79018 38.3968 6 36.4891 6 34.5V19.5C6 17.5109 6.79018 15.6032 8.1967 14.1967C9.60322 12.7902 11.5109 12 13.5 12H15V10.5ZM24 4.5C22.4087 4.5 20.8826 5.13214 19.7574 6.25736C18.6321 7.38258 18 8.9087 18 10.5V12H30V10.5C30 8.9087 29.3679 7.38258 28.2426 6.25736C27.1174 5.13214 25.5913 4.5 24 4.5ZM24 30C24.7956 30 25.5587 29.6839 26.1213 29.1213C26.6839 28.5587 27 27.7956 27 27C27 26.2044 26.6839 25.4413 26.1213 24.8787C25.5587 24.3161 24.7956 24 24 24C23.2044 24 22.4413 24.3161 21.8787 24.8787C21.3161 25.4413 21 26.2044 21 27C21 27.7956 21.3161 28.5587 21.8787 29.1213C22.4413 29.6839 23.2044 30 24 30Z" fill="#969696"/>
</svg>
