<svg width="48" height="48" viewBox="0 0 48 48" fill="none" xmlns="http://www.w3.org/2000/svg">
<path d="M27.321 30.504C24.5621 32.4655 21.167 33.319 17.8085 32.8952C14.45 32.4715 11.3733 30.8015 9.18807 28.2162C7.00285 25.6309 5.86864 22.3189 6.01022 18.9368C6.1518 15.5546 7.55883 12.3491 9.95247 9.95546C12.3461 7.56183 15.5516 6.1548 18.9338 6.01322C22.3159 5.87164 25.6279 7.00585 28.2132 9.19107C30.7985 11.3763 32.4685 14.453 32.8922 17.8115C33.316 21.17 32.4625 24.5651 30.501 27.324L41.34 38.16C41.5611 38.366 41.7384 38.6144 41.8613 38.8904C41.9843 39.1664 42.0504 39.4643 42.0558 39.7664C42.0611 40.0685 42.0055 40.3686 41.8924 40.6488C41.7792 40.929 41.6108 41.1835 41.3971 41.3971C41.1835 41.6108 40.929 41.7792 40.6488 41.8924C40.3686 42.0055 40.0685 42.0611 39.7664 42.0558C39.4643 42.0504 39.1664 41.9843 38.8904 41.8613C38.6144 41.7384 38.366 41.5611 38.16 41.34L27.321 30.504ZM28.5 19.5C28.5 17.1131 27.5518 14.8239 25.864 13.136C24.1761 11.4482 21.8869 10.5 19.5 10.5C17.1131 10.5 14.8239 11.4482 13.136 13.136C11.4482 14.8239 10.5 17.1131 10.5 19.5C10.5 21.8869 11.4482 24.1761 13.136 25.864C14.8239 27.5518 17.1131 28.5 19.5 28.5C21.8869 28.5 24.1761 27.5518 25.864 25.864C27.5518 24.1761 28.5 21.8869 28.5 19.5Z" fill="#969696"/>
</svg>
