<svg width="48" height="48" viewBox="0 0 48 48" fill="none" xmlns="http://www.w3.org/2000/svg">
<path d="M34.5 24C35.6935 24 36.8381 24.4741 37.682 25.318C38.5259 26.1619 39 27.3065 39 28.5V30C39 35.913 33.42 42 24 42C14.58 42 9 35.913 9 30V28.5C9 27.3065 9.47411 26.1619 10.318 25.318C11.1619 24.4741 12.3065 24 13.5 24H34.5ZM24 4.5C26.188 4.5 28.2865 5.36919 29.8336 6.91637C31.3808 8.46354 32.25 10.562 32.25 12.75C32.25 14.938 31.3808 17.0365 29.8336 18.5836C28.2865 20.1308 26.188 21 24 21C21.812 21 19.7135 20.1308 18.1664 18.5836C16.6192 17.0365 15.75 14.938 15.75 12.75C15.75 10.562 16.6192 8.46354 18.1664 6.91637C19.7135 5.36919 21.812 4.5 24 4.5Z" fill="#969696"/>
</svg>
